<svg xmlns="http://www.w3.org/2000/svg" xmlns:xlink="http://www.w3.org/1999/xlink" width="500" zoomAndPan="magnify" viewBox="0 0 375 374.999991" height="500" preserveAspectRatio="xMidYMid meet" version="1.0"><defs><clipPath id="50b78f30bf"><path d="M 71 96 L 137 96 L 137 167 L 71 167 Z M 71 96 " clip-rule="nonzero"/></clipPath><clipPath id="adfe39a444"><path d="M 48.851562 109.65625 L 113.992188 84.054688 L 136.394531 141.050781 L 71.253906 166.65625 Z M 48.851562 109.65625 " clip-rule="nonzero"/></clipPath><clipPath id="2294883a84"><path d="M 81.421875 96.855469 L 136.394531 141.050781 L 71.253906 166.65625 L 81.421875 96.855469 " clip-rule="nonzero"/></clipPath><clipPath id="98b7466583"><path d="M 136 71 L 202 71 L 202 142 L 136 142 Z M 136 71 " clip-rule="nonzero"/></clipPath><clipPath id="af8a45d70b"><path d="M 113.992188 84.054688 L 179.132812 58.449219 L 201.539062 115.449219 L 136.394531 141.050781 Z M 113.992188 84.054688 " clip-rule="nonzero"/></clipPath><clipPath id="822fd77904"><path d="M 146.5625 71.25 L 201.539062 115.449219 L 136.394531 141.050781 L 146.5625 71.25 " clip-rule="nonzero"/></clipPath><clipPath id="34ee95b65d"><path d="M 81 71 L 147 71 L 147 142 L 81 142 Z M 81 71 " clip-rule="nonzero"/></clipPath><clipPath id="aeb1ad7a96"><path d="M 168.957031 128.25 L 103.816406 153.855469 L 81.414062 96.855469 L 146.554688 71.253906 Z M 168.957031 128.25 " clip-rule="nonzero"/></clipPath><clipPath id="9d9067b12f"><path d="M 136.386719 141.054688 L 81.414062 96.855469 L 146.554688 71.253906 L 136.386719 141.054688 " clip-rule="nonzero"/></clipPath><clipPath id="348e10de47"><path d="M 146 45 L 212 45 L 212 116 L 146 116 Z M 146 45 " clip-rule="nonzero"/></clipPath><clipPath id="87f6fecfd2"><path d="M 234.164062 102.648438 L 169.023438 128.25 L 146.617188 71.253906 L 211.761719 45.648438 Z M 234.164062 102.648438 " clip-rule="nonzero"/></clipPath><clipPath id="5fcc0e80e8"><path d="M 201.59375 115.449219 L 146.617188 71.253906 L 211.761719 45.648438 L 201.59375 115.449219 " clip-rule="nonzero"/></clipPath><clipPath id="3f2ec16b83"><path d="M 70 139 L 136 139 L 136 210 L 70 210 Z M 70 139 " clip-rule="nonzero"/></clipPath><clipPath id="474ffa5063"><path d="M 158.355469 196.941406 L 93.214844 222.542969 L 70.808594 165.542969 L 135.949219 139.941406 Z M 158.355469 196.941406 " clip-rule="nonzero"/></clipPath><clipPath id="121d20fed1"><path d="M 125.785156 209.742188 L 70.808594 165.542969 L 135.949219 139.941406 L 125.785156 209.742188 " clip-rule="nonzero"/></clipPath><clipPath id="6344c5e4a0"><path d="M 60 165 L 126 165 L 126 236 L 60 236 Z M 60 165 " clip-rule="nonzero"/></clipPath><clipPath id="f9b0fd5a4b"><path d="M 38.246094 178.34375 L 103.386719 152.742188 L 125.792969 209.738281 L 60.652344 235.34375 Z M 38.246094 178.34375 " clip-rule="nonzero"/></clipPath><clipPath id="3b7136ea45"><path d="M 70.816406 165.542969 L 125.792969 209.738281 L 60.652344 235.34375 L 70.816406 165.542969 " clip-rule="nonzero"/></clipPath><clipPath id="0aa8298931"><path d="M 170 250 L 236 250 L 236 320 L 170 320 Z M 170 250 " clip-rule="nonzero"/></clipPath><clipPath id="25304d5249"><path d="M 197.742188 341.367188 L 142.507812 298.371094 L 180.128906 250.042969 L 235.359375 293.039062 Z M 197.742188 341.367188 " clip-rule="nonzero"/></clipPath><clipPath id="35e12301f0"><path d="M 170.125 319.867188 L 180.128906 250.042969 L 235.359375 293.039062 L 170.125 319.867188 " clip-rule="nonzero"/></clipPath><clipPath id="46975cd7e5"><path d="M 114 250 L 181 250 L 181 320 L 114 320 Z M 114 250 " clip-rule="nonzero"/></clipPath><clipPath id="600580cfc8"><path d="M 152.519531 228.554688 L 207.75 271.546875 L 170.128906 319.875 L 114.898438 276.882812 Z M 152.519531 228.554688 " clip-rule="nonzero"/></clipPath><clipPath id="706ef2897f"><path d="M 180.132812 250.050781 L 170.128906 319.875 L 114.898438 276.882812 L 180.132812 250.050781 " clip-rule="nonzero"/></clipPath><clipPath id="a1a0275817"><path d="M 114 207 L 181 207 L 181 277 L 114 277 Z M 114 207 " clip-rule="nonzero"/></clipPath><clipPath id="b2ebff0e7e"><path d="M 142.507812 298.371094 L 87.277344 255.378906 L 124.898438 207.050781 L 180.128906 250.042969 Z M 142.507812 298.371094 " clip-rule="nonzero"/></clipPath><clipPath id="886c39c97c"><path d="M 114.894531 276.875 L 124.898438 207.050781 L 180.128906 250.042969 L 114.894531 276.875 " clip-rule="nonzero"/></clipPath><clipPath id="5f0458676a"><path d="M 179 224 L 245 224 L 245 294 L 179 294 Z M 179 224 " clip-rule="nonzero"/></clipPath><clipPath id="0598bffe2b"><path d="M 217.019531 202.667969 L 272.25 245.660156 L 234.632812 293.988281 L 179.398438 250.992188 Z M 217.019531 202.667969 " clip-rule="nonzero"/></clipPath><clipPath id="8c2217de14"><path d="M 244.636719 224.164062 L 234.632812 293.988281 L 179.398438 250.992188 L 244.636719 224.164062 " clip-rule="nonzero"/></clipPath><clipPath id="0c4e9d5160"><path d="M 234 224 L 300 224 L 300 294 L 234 294 Z M 234 224 " clip-rule="nonzero"/></clipPath><clipPath id="7e0fa8421d"><path d="M 262.242188 315.476562 L 207.011719 272.484375 L 244.628906 224.15625 L 299.859375 267.152344 Z M 262.242188 315.476562 " clip-rule="nonzero"/></clipPath><clipPath id="5228fc0297"><path d="M 234.625 293.980469 L 244.628906 224.15625 L 299.859375 267.152344 L 234.625 293.980469 " clip-rule="nonzero"/></clipPath><clipPath id="2857b15ccc"><path d="M 243 198 L 310 198 L 310 269 L 243 269 Z M 243 198 " clip-rule="nonzero"/></clipPath><clipPath id="7067c54ebb"><path d="M 281.519531 176.777344 L 336.75 219.773438 L 299.132812 268.101562 L 243.902344 225.105469 Z M 281.519531 176.777344 " clip-rule="nonzero"/></clipPath><clipPath id="845b3c0c4b"><path d="M 309.136719 198.277344 L 299.132812 268.101562 L 243.902344 225.105469 L 309.136719 198.277344 " clip-rule="nonzero"/></clipPath><clipPath id="8c4380bc69"><path d="M 243 155 L 310 155 L 310 226 L 243 226 Z M 243 155 " clip-rule="nonzero"/></clipPath><clipPath id="8926d3bc93"><path d="M 271.511719 246.597656 L 216.28125 203.605469 L 253.898438 155.277344 L 309.128906 198.269531 Z M 271.511719 246.597656 " clip-rule="nonzero"/></clipPath><clipPath id="7166f2ebaa"><path d="M 243.894531 225.101562 L 253.898438 155.277344 L 309.128906 198.269531 L 243.894531 225.101562 " clip-rule="nonzero"/></clipPath><clipPath id="4e418067fb"><path d="M 188 155 L 255 155 L 255 226 L 188 226 Z M 188 155 " clip-rule="nonzero"/></clipPath><clipPath id="98b3e3ab9e"><path d="M 226.558594 133.855469 L 281.792969 176.851562 L 244.171875 225.179688 L 188.941406 182.183594 Z M 226.558594 133.855469 " clip-rule="nonzero"/></clipPath><clipPath id="f4e1fe09cc"><path d="M 254.175781 155.355469 L 244.171875 225.179688 L 188.941406 182.183594 L 254.175781 155.355469 " clip-rule="nonzero"/></clipPath><clipPath id="bb1bcb53c7"><path d="M 221 42 L 265 42 L 265 90 L 221 90 Z M 221 42 " clip-rule="nonzero"/></clipPath><clipPath id="a43289821d"><path d="M 206.203125 51.558594 L 249.238281 33.628906 L 264.925781 71.285156 L 221.890625 89.210938 Z M 206.203125 51.558594 " clip-rule="nonzero"/></clipPath><clipPath id="153f513bec"><path d="M 227.71875 42.59375 L 264.925781 71.285156 L 221.890625 89.210938 L 227.71875 42.59375 " clip-rule="nonzero"/></clipPath><clipPath id="8ede76696d"><path d="M 235 90 L 270 90 L 270 127 L 235 127 Z M 235 90 " clip-rule="nonzero"/></clipPath><clipPath id="5f00e87b8f"><path d="M 255.375 79.285156 L 283.433594 101.929688 L 263.617188 126.480469 L 235.558594 103.835938 Z M 255.375 79.285156 " clip-rule="nonzero"/></clipPath><clipPath id="ca0b6d7d51"><path d="M 269.402344 90.605469 L 263.617188 126.480469 L 235.558594 103.835938 L 269.402344 90.605469 " clip-rule="nonzero"/></clipPath><clipPath id="864dbf3a3f"><path d="M 281 98 L 304 98 L 304 122 L 281 122 Z M 281 98 " clip-rule="nonzero"/></clipPath><clipPath id="0a48603f0d"><path d="M 274.082031 102.589844 L 295.597656 93.625 L 303.441406 112.453125 L 281.925781 121.417969 Z M 274.082031 102.589844 " clip-rule="nonzero"/></clipPath><clipPath id="c3b07ea3bc"><path d="M 284.839844 98.109375 L 303.441406 112.453125 L 281.925781 121.417969 L 284.839844 98.109375 " clip-rule="nonzero"/></clipPath><clipPath id="975cb87ce0"><path d="M 89 209 L 125 209 L 125 248 L 89 248 Z M 89 209 " clip-rule="nonzero"/></clipPath><clipPath id="8d502f5fd2"><path d="M 109.785156 197.328125 L 140.117188 221.011719 L 119.390625 247.550781 L 89.058594 223.867188 Z M 109.785156 197.328125 " clip-rule="nonzero"/></clipPath><clipPath id="6c7edfb8eb"><path d="M 124.949219 209.171875 L 119.390625 247.550781 L 89.058594 223.867188 L 124.949219 209.171875 " clip-rule="nonzero"/></clipPath></defs><g clip-path="url(#50b78f30bf)"><g clip-path="url(#adfe39a444)"><g clip-path="url(#2294883a84)"><path fill="#ff8800" d="M 48.851562 109.65625 L 113.992188 84.054688 L 136.394531 141.050781 L 71.253906 166.65625 Z M 48.851562 109.65625 " fill-opacity="1" fill-rule="nonzero"/></g></g></g><g clip-path="url(#98b7466583)"><g clip-path="url(#af8a45d70b)"><g clip-path="url(#822fd77904)"><path fill="#ffa200" d="M 113.992188 84.054688 L 179.132812 58.449219 L 201.539062 115.449219 L 136.394531 141.050781 Z M 113.992188 84.054688 " fill-opacity="1" fill-rule="nonzero"/></g></g></g><g clip-path="url(#34ee95b65d)"><g clip-path="url(#aeb1ad7a96)"><g clip-path="url(#9d9067b12f)"><path fill="#ffb700" d="M 168.957031 128.25 L 103.816406 153.855469 L 81.414062 96.855469 L 146.554688 71.253906 Z M 168.957031 128.25 " fill-opacity="1" fill-rule="nonzero"/></g></g></g><g clip-path="url(#348e10de47)"><g clip-path="url(#87f6fecfd2)"><g clip-path="url(#5fcc0e80e8)"><path fill="#ff8800" d="M 234.164062 102.648438 L 169.023438 128.25 L 146.617188 71.253906 L 211.761719 45.648438 Z M 234.164062 102.648438 " fill-opacity="1" fill-rule="nonzero"/></g></g></g><g clip-path="url(#3f2ec16b83)"><g clip-path="url(#474ffa5063)"><g clip-path="url(#121d20fed1)"><path fill="#ffb700" d="M 158.355469 196.941406 L 93.214844 222.542969 L 70.808594 165.542969 L 135.949219 139.941406 Z M 158.355469 196.941406 " fill-opacity="1" fill-rule="nonzero"/></g></g></g><g clip-path="url(#6344c5e4a0)"><g clip-path="url(#f9b0fd5a4b)"><g clip-path="url(#3b7136ea45)"><path fill="#ffa200" d="M 38.246094 178.34375 L 103.386719 152.742188 L 125.792969 209.738281 L 60.652344 235.34375 Z M 38.246094 178.34375 " fill-opacity="1" fill-rule="nonzero"/></g></g></g><g clip-path="url(#0aa8298931)"><g clip-path="url(#25304d5249)"><g clip-path="url(#35e12301f0)"><path fill="#ffa200" d="M 197.742188 341.367188 L 142.507812 298.371094 L 180.128906 250.042969 L 235.359375 293.039062 Z M 197.742188 341.367188 " fill-opacity="1" fill-rule="nonzero"/></g></g></g><g clip-path="url(#46975cd7e5)"><g clip-path="url(#600580cfc8)"><g clip-path="url(#706ef2897f)"><path fill="#ff8800" d="M 152.519531 228.554688 L 207.75 271.546875 L 170.128906 319.875 L 114.898438 276.882812 Z M 152.519531 228.554688 " fill-opacity="1" fill-rule="nonzero"/></g></g></g><g clip-path="url(#a1a0275817)"><g clip-path="url(#b2ebff0e7e)"><g clip-path="url(#886c39c97c)"><path fill="#ffb700" d="M 142.507812 298.371094 L 87.277344 255.378906 L 124.898438 207.050781 L 180.128906 250.042969 Z M 142.507812 298.371094 " fill-opacity="1" fill-rule="nonzero"/></g></g></g><g clip-path="url(#5f0458676a)"><g clip-path="url(#0598bffe2b)"><g clip-path="url(#8c2217de14)"><path fill="#ffb700" d="M 217.019531 202.667969 L 272.25 245.660156 L 234.632812 293.988281 L 179.398438 250.992188 Z M 217.019531 202.667969 " fill-opacity="1" fill-rule="nonzero"/></g></g></g><g clip-path="url(#0c4e9d5160)"><g clip-path="url(#7e0fa8421d)"><g clip-path="url(#5228fc0297)"><path fill="#ff8800" d="M 262.242188 315.476562 L 207.011719 272.484375 L 244.628906 224.15625 L 299.859375 267.152344 Z M 262.242188 315.476562 " fill-opacity="1" fill-rule="nonzero"/></g></g></g><g clip-path="url(#2857b15ccc)"><g clip-path="url(#7067c54ebb)"><g clip-path="url(#845b3c0c4b)"><path fill="#ffa200" d="M 281.519531 176.777344 L 336.75 219.773438 L 299.132812 268.101562 L 243.902344 225.105469 Z M 281.519531 176.777344 " fill-opacity="1" fill-rule="nonzero"/></g></g></g><g clip-path="url(#8c4380bc69)"><g clip-path="url(#8926d3bc93)"><g clip-path="url(#7166f2ebaa)"><path fill="#ffb700" d="M 271.511719 246.597656 L 216.28125 203.605469 L 253.898438 155.277344 L 309.128906 198.269531 Z M 271.511719 246.597656 " fill-opacity="1" fill-rule="nonzero"/></g></g></g><g clip-path="url(#4e418067fb)"><g clip-path="url(#98b3e3ab9e)"><g clip-path="url(#f4e1fe09cc)"><path fill="#ff8800" d="M 226.558594 133.855469 L 281.792969 176.851562 L 244.171875 225.179688 L 188.941406 182.183594 Z M 226.558594 133.855469 " fill-opacity="1" fill-rule="nonzero"/></g></g></g><g clip-path="url(#bb1bcb53c7)"><g clip-path="url(#a43289821d)"><g clip-path="url(#153f513bec)"><path fill="#ffa200" d="M 206.203125 51.558594 L 249.238281 33.628906 L 264.925781 71.285156 L 221.890625 89.210938 Z M 206.203125 51.558594 " fill-opacity="1" fill-rule="nonzero"/></g></g></g><g clip-path="url(#8ede76696d)"><g clip-path="url(#5f00e87b8f)"><g clip-path="url(#ca0b6d7d51)"><path fill="#ff8800" d="M 255.375 79.285156 L 283.433594 101.929688 L 263.617188 126.480469 L 235.558594 103.835938 Z M 255.375 79.285156 " fill-opacity="1" fill-rule="nonzero"/></g></g></g><g clip-path="url(#864dbf3a3f)"><g clip-path="url(#0a48603f0d)"><g clip-path="url(#c3b07ea3bc)"><path fill="#ffb700" d="M 274.082031 102.589844 L 295.597656 93.625 L 303.441406 112.453125 L 281.925781 121.417969 Z M 274.082031 102.589844 " fill-opacity="1" fill-rule="nonzero"/></g></g></g><g clip-path="url(#975cb87ce0)"><g clip-path="url(#8d502f5fd2)"><g clip-path="url(#6c7edfb8eb)"><path fill="#ff8800" d="M 109.785156 197.328125 L 140.117188 221.011719 L 119.390625 247.550781 L 89.058594 223.867188 Z M 109.785156 197.328125 " fill-opacity="1" fill-rule="nonzero"/></g></g></g></svg>